<svg className="App-logo" width="100%" height="100%" viewBox="0 0 100 100" preserveAspectRatio="xMidYMid meet" xmlns="http://www.w3.org/2000/svg">
    <g className="snowball-group">
        <path className="snowball-piece" fill-rule="evenodd" clip-rule="evenodd" d="M38.4 25C45 25.3 50.1 30 54.8 34.6C59.6 39.2 64.6 44.2 64.9 50.8C65.3 57.7 61.8 64.2 56.7 68.9C51.7 73.3 45 74.8 38.4 75C31.4 75.2 23.8 74.9 19 70C14.3 65 14.9 57.5 15.1 50.8C15.3 44.3 15.8 37.7 20.2 32.9C24.8 27.8 31.5 24.7 38.4 25Z" fill="#4BA4F7"/>
        <path className="snowball-piece" fill-rule="evenodd" clip-rule="evenodd" d="M45.9 25C52.5 25.3 57.6 30 62.3 34.6C67.1 39.2 72.1 44.2 72.4 50.8C72.8 57.7 69.3 64.2 64.2 68.9C59.2 73.3 52.5 74.8 45.9 75C38.9 75.2 31.3 74.9 26.5 70C21.8 65 22.4 57.5 22.6 50.8C22.8 44.3 23.3 37.7 27.7 32.9C32.3 27.8 39 24.7 45.9 25Z" fill="#8AC4FA"/>
        <path className="snowball-piece" fill-rule="evenodd" clip-rule="evenodd" d="M53.4 25C60 25.3 65.1 30 69.8 34.6C74.6 39.2 79.6 44.2 79.9 50.8C80.3 57.7 76.8 64.2 71.7 68.9C66.7 73.3 60 74.8 53.4 75C46.4 75.2 38.8 74.9 34 70C29.3 65 29.9 57.5 30.1 50.8C30.3 44.3 30.8 37.7 35.2 32.9C39.8 27.8 46.5 24.7 53.4 25Z" fill="#CAE4FD"/>
        <path className="snowball-piece" fill-rule="evenodd" clip-rule="evenodd" d="M60.9 25C67.5 25.3 72.6 30 77.3 34.6C82.1 39.2 87.1 44.2 87.4 50.8C87.8 57.7 84.3 64.2 79.2 68.9C74.2 73.3 67.5 74.8 60.9 75C53.9 75.2 46.3 74.9 41.5 70C36.8 65 37.4 57.5 37.6 50.8C37.8 44.3 38.3 37.7 42.7 32.9C47.3 27.8 54 24.7 60.9 25Z" fill="white"/>
    </g>
</svg>